<svg xmlns="http://www.w3.org/2000/svg" viewBox="0 0 74.6 74.98"><title>Asset 1</title><g id="Layer_2" data-name="Layer 2"><g id="Layer_1-2" data-name="Layer 1"><path d="M55.7,75c-1.37-.23-2.75-.41-4.11-.7a53.26,53.26,0,0,1-14.43-5.91,77.2,77.2,0,0,1-19-14.88C11.45,46.2,5.87,38.17,2.35,28.83A32.36,32.36,0,0,1,0,18.28,12.73,12.73,0,0,1,3.51,8.57C5.61,6.42,7.64,4.19,9.9,2.23c3.49-3,7.29-3,10.66.14,3.56,3.34,7,6.85,10.31,10.42a7.08,7.08,0,0,1,0,9.63c-1.76,2-3.71,3.82-5.57,5.73-.17.16-.35.3-.66.58A54.31,54.31,0,0,0,46,50.06l4.44-4.49a11.34,11.34,0,0,1,4-3,6.73,6.73,0,0,1,7.31,1.3q5.59,5.33,10.9,10.94a7.13,7.13,0,0,1,.19,9.53c-2.24,2.64-4.72,5.14-7.23,7.56a11.07,11.07,0,0,1-6.48,2.89,4.91,4.91,0,0,0-.51.15Zm1.11-4.51a8.54,8.54,0,0,0,6.65-2.62c1.68-1.76,3.4-3.48,5.1-5.22a6.89,6.89,0,0,0,.62-.7,3,3,0,0,0,0-4.32.6.6,0,0,0-.08-.08c-1.37-1.48-2.82-2.88-4.24-4.31-1.85-1.85-3.68-3.71-5.55-5.53a3,3,0,0,0-4.23-.24l-.14.12c-.28.23-.53.49-.79.75-1.78,1.77-3.54,3.56-5.33,5.31a3.38,3.38,0,0,1-4.25.71c-1.09-.55-2.17-1.1-3.22-1.72A55.57,55.57,0,0,1,28.92,42.26,45,45,0,0,1,20.7,30.58c-1.06-2.34-.83-3.48,1-5.26s3.79-3.67,5.6-5.59a2.85,2.85,0,0,0,.22-4l-.15-.15c-.22-.26-.45-.5-.68-.74L17.91,6C16,4.13,14.36,4.11,12.48,6S8.83,9.5,7.12,11.37a10.1,10.1,0,0,0-2,3A12.78,12.78,0,0,0,5,21.72a45.06,45.06,0,0,0,3.9,10.75A73.69,73.69,0,0,0,20.29,49,71.72,71.72,0,0,0,49,68.78a26.07,26.07,0,0,0,7.84,1.65Z"/></g></g></svg>