<svg xmlns="http://www.w3.org/2000/svg" width="200" viewBox="0 0 250 300" height="130" version="1.0"><defs><clipPath id="a"><path d="M 20.230469 105 L 170 105 L 170 215 L 20.230469 215 Z M 20.230469 105"/></clipPath></defs><g clip-path="url(#a)"><path fill="#002028" d="M 165.765625 145.710938 C 164.628906 145.292969 163.457031 145.117188 162.25 145.191406 C 159.351562 145.378906 156.992188 147.058594 155.3125 148.765625 C 155.523438 142.410156 155.082031 136.09375 153.988281 129.828125 C 153.746094 128.492188 153.375 127.199219 152.871094 125.941406 C 152.367188 124.683594 151.742188 123.488281 150.992188 122.359375 C 150.246094 121.230469 149.390625 120.1875 148.425781 119.230469 C 147.464844 118.277344 146.414062 117.425781 145.28125 116.6875 C 129.503906 106.492188 112.152344 105.253906 100.375 106.011719 C 87 106.890625 73.734375 110.960938 66.582031 116.386719 L 37.234375 138.816406 C 35.914062 139.832031 34.65625 140.921875 33.464844 142.078125 C 32.269531 143.238281 31.144531 144.460938 30.089844 145.75 C 29.035156 147.035156 28.058594 148.378906 27.160156 149.78125 C 26.257812 151.179688 25.441406 152.625 24.707031 154.121094 C 23.976562 155.613281 23.328125 157.144531 22.773438 158.710938 C 22.214844 160.277344 21.75 161.871094 21.375 163.492188 C 21 165.113281 20.71875 166.75 20.53125 168.402344 C 20.347656 170.054688 20.257812 171.710938 20.261719 173.375 L 20.398438 197.5625 C 20.398438 197.917969 20.5 198.246094 20.695312 198.546875 C 20.890625 198.847656 21.152344 199.070312 21.480469 199.214844 L 21.972656 199.433594 C 22.179688 201.164062 22.667969 202.816406 23.425781 204.382812 C 24.1875 205.953125 25.183594 207.355469 26.417969 208.589844 C 29.011719 211.132812 32.300781 212.414062 35.679688 212.195312 C 38.921875 211.984375 42.6875 209.851562 44.410156 204.640625 C 47.601562 210.207031 52.945312 213.464844 58.621094 213.09375 C 64.292969 212.722656 68.867188 209.382812 71.238281 203.878906 C 76.742188 205.28125 85.613281 205.847656 92.542969 206.066406 C 92.769531 207.441406 93.257812 208.714844 94.011719 209.886719 C 95.265625 211.816406 97.84375 214.125 102.976562 214.144531 C 103.351562 214.144531 103.714844 214.144531 104.066406 214.113281 C 111.378906 213.640625 113.585938 208.304688 114.191406 206.015625 C 115.296875 205.976562 116.761719 205.917969 118.480469 205.839844 C 118.871094 207.6875 119.75 209.265625 121.117188 210.570312 C 123.460938 212.777344 126.9375 213.75 131.453125 213.460938 C 135.789062 213.179688 139.085938 211.566406 141.265625 208.664062 C 142.414062 207.113281 143.164062 205.386719 143.515625 203.492188 C 150.957031 202.195312 152.738281 200.800781 153.421875 199.839844 C 154.269531 198.671875 154.996094 196.796875 155.636719 194.058594 C 155.796875 193.761719 155.871094 193.441406 155.851562 193.105469 C 156.765625 188.886719 157.425781 183.0625 157.679688 177.054688 C 157.925781 171.417969 157.808594 166.121094 157.355469 162.265625 C 159.792969 162.105469 162.421875 160.964844 164.761719 159.050781 C 167.019531 157.210938 168.675781 154.890625 169.308594 152.683594 C 170.226562 149.515625 168.871094 146.832031 165.765625 145.710938 Z M 165.765625 145.710938"/></g><path fill="#58595B" d="M 42.683594 193.734375 L 40.921875 193.734375 C 40.738281 193.734375 40.578125 193.671875 40.445312 193.542969 C 40.316406 193.410156 40.253906 193.253906 40.253906 193.070312 C 40.253906 193.035156 40.238281 189.257812 37.871094 187.078125 C 36.566406 185.878906 34.765625 185.371094 32.511719 185.558594 C 29.652344 185.804688 27.742188 187.6875 26.640625 189.210938 C 24.539062 192.136719 23.804688 195.988281 24.308594 198.03125 L 24.308594 198.054688 C 24.316406 198.082031 24.320312 198.113281 24.324219 198.144531 C 24.761719 204.894531 29.785156 210.078125 35.519531 209.707031 C 40.070312 209.433594 42.976562 204.714844 42.902344 197.714844 C 42.902344 197.582031 42.9375 197.460938 43.011719 197.351562 C 42.875 196.578125 42.777344 195.796875 42.726562 195.015625 C 42.699219 194.578125 42.691406 194.152344 42.683594 193.734375 Z M 31.976562 205.769531 C 29.765625 205.914062 28.355469 202.078125 28.105469 198.210938 C 27.855469 194.34375 28.757812 190.359375 30.96875 190.214844 C 33.183594 190.074219 34.582031 193.910156 34.839844 197.773438 C 35.097656 201.636719 34.1875 205.628906 31.976562 205.769531 Z M 31.976562 205.769531"/><path fill="#414042" d="M 56.679688 184.390625 C 55.058594 186.109375 54.15625 189.160156 54.367188 192.375 C 54.617188 196.214844 55.867188 198.976562 57.890625 200.167969 C 59.46875 198.503906 60.410156 195.511719 60.191406 192.175781 C 59.96875 188.714844 58.554688 185.785156 56.679688 184.390625 Z M 56.679688 184.390625"/><path fill="#A7A9AC" d="M 31.054688 191.535156 C 30.21875 191.585938 29.167969 194.179688 29.425781 198.125 C 29.679688 202.066406 31.054688 204.511719 31.894531 204.453125 C 32.730469 204.390625 33.777344 201.800781 33.523438 197.859375 C 33.265625 193.917969 31.890625 191.480469 31.054688 191.535156 Z M 31.054688 191.535156"/><path fill="#A7A9AC" d="M 53.046875 192.460938 C 52.824219 188.988281 53.742188 185.769531 55.488281 183.738281 C 55.015625 183.566406 54.53125 183.496094 54.03125 183.527344 C 50.953125 183.726562 48.710938 187.929688 49.03125 192.898438 C 49.351562 197.867188 52.121094 201.742188 55.199219 201.539062 C 55.773438 201.5 56.308594 201.335938 56.804688 201.039062 C 54.640625 199.515625 53.3125 196.5 53.046875 192.460938 Z M 53.046875 192.460938"/><path fill="#27AAE1" d="M 59.574219 162.390625 C 59.371094 162.390625 57.746094 162.5 55.464844 162.425781 C 56.769531 164.769531 58.984375 167.832031 60.535156 167.878906 C 60.714844 167.878906 61.253906 167.898438 61.839844 166.890625 C 62.574219 165.632812 62.667969 164.089844 62.128906 162.300781 C 60.445312 156.757812 53.125 150.253906 47.308594 147.390625 C 44.449219 145.992188 42.011719 146.125 40.601562 147.75 C 40.285156 148.125 40.035156 148.542969 39.855469 149.003906 L 39.667969 149.574219 C 39.117188 151.601562 39.640625 154.21875 41.164062 156.394531 C 45.035156 161.921875 59.332031 161.058594 59.480469 161.050781 C 59.660156 161.042969 59.816406 161.097656 59.949219 161.21875 C 60.082031 161.339844 60.15625 161.488281 60.167969 161.667969 C 60.179688 161.847656 60.125 162.003906 60.007812 162.140625 C 59.890625 162.277344 59.742188 162.351562 59.566406 162.367188 Z M 59.574219 162.390625"/><path fill="#27AAE1" d="M 59.507812 155.234375 C 59.507812 155.265625 59.507812 155.300781 59.507812 155.335938 C 60.582031 156.585938 61.519531 157.933594 62.316406 159.378906 C 62.527344 159.199219 62.859375 158.929688 63.304688 158.589844 C 63.25 158.503906 63.21875 158.410156 63.207031 158.308594 C 63.109375 157.339844 60.9375 134.40625 69.875 122.441406 C 74.234375 116.609375 86.316406 112.53125 101.398438 111.792969 C 110.234375 111.367188 119.273438 112.191406 126.871094 114.117188 C 135.457031 116.289062 142.160156 119.828125 146.265625 124.328125 C 150.453125 128.933594 152.308594 138.792969 151.792969 153.636719 C 152.039062 153.824219 152.277344 154.015625 152.507812 154.207031 C 153.242188 146.183594 152.921875 138.203125 151.546875 130.265625 C 151.339844 129.097656 151.015625 127.964844 150.574219 126.863281 C 150.132812 125.761719 149.582031 124.71875 148.929688 123.726562 C 148.273438 122.738281 147.523438 121.828125 146.683594 120.988281 C 145.839844 120.152344 144.921875 119.410156 143.929688 118.761719 C 128.722656 108.9375 111.929688 107.746094 100.53125 108.484375 L 100.503906 108.484375 C 87.609375 109.316406 74.878906 113.195312 68.066406 118.363281 C 57.136719 126.664062 59.480469 154.949219 59.507812 155.234375 Z M 59.507812 155.234375"/><path fill="#CAE6EF" d="M 101.460938 113.113281 C 86.976562 113.808594 75.003906 117.777344 70.933594 123.222656 C 62.976562 133.871094 64.230469 154.367188 64.484375 157.707031 C 67.753906 155.398438 71.21875 153.421875 74.871094 151.773438 C 82.507812 148.28125 95.054688 144.238281 111.441406 144.804688 C 130.40625 145.464844 143.269531 148.070312 150.492188 152.730469 C 150.902344 138.722656 149.152344 129.460938 145.285156 125.207031 C 136.152344 115.167969 115.96875 112.417969 101.460938 113.113281 Z M 101.460938 113.113281"/><path fill="#58595B" d="M 67.703125 200.824219 C 67.703125 200.65625 69.121094 183.816406 62.503906 177.585938 C 60.5 175.707031 57.929688 174.984375 54.824219 175.457031 C 49.707031 176.214844 46.335938 179.363281 44.792969 184.8125 C 44.074219 187.503906 43.808594 190.234375 44.003906 193.011719 C 44.003906 193.027344 44.003906 193.039062 44.003906 193.050781 C 44.003906 193.066406 44.003906 193.078125 44.003906 193.09375 C 44.003906 193.703125 44.003906 194.3125 44.042969 194.921875 C 44.632812 204.046875 51.101562 211.109375 58.457031 210.632812 C 63.542969 210.304688 67.378906 207.265625 69.289062 202.066406 C 68.847656 201.898438 68.421875 201.695312 68.015625 201.457031 C 67.773438 201.316406 67.671875 201.105469 67.703125 200.824219 Z M 55.28125 202.859375 C 51.480469 203.105469 48.085938 198.671875 47.714844 192.980469 C 47.347656 187.292969 50.152344 182.457031 53.945312 182.210938 C 54.90625 182.15625 55.808594 182.367188 56.652344 182.835938 C 56.859375 182.832031 57.027344 182.90625 57.164062 183.0625 C 57.199219 183.109375 57.230469 183.15625 57.253906 183.210938 C 59.546875 184.808594 61.253906 188.144531 61.519531 192.089844 C 61.878906 197.78125 59.085938 202.613281 55.28125 202.859375 Z M 55.28125 202.859375"/><path fill="#CAE6EF" d="M 53.261719 149.539062 L 53.519531 137.621094 C 49.683594 139.976562 45.976562 142.519531 42.402344 145.25 C 43.980469 144.910156 45.863281 145.222656 47.886719 146.21875 C 49.777344 147.164062 51.570312 148.269531 53.261719 149.539062 Z M 53.261719 149.539062"/><path fill="#CAE6EF" d="M 40.308594 157.460938 L 40.5625 167.699219 C 40.566406 167.8125 40.617188 167.898438 40.714844 167.957031 C 40.816406 168.015625 40.917969 168.015625 41.019531 167.957031 L 51.957031 162.175781 C 47.648438 161.714844 42.679688 160.492188 40.308594 157.460938 Z M 40.308594 157.460938"/><path fill="#27AAE1" d="M 164.921875 148.039062 C 158.660156 145.777344 154.378906 154.066406 153.761719 155.359375 C 153.960938 155.558594 154.152344 155.765625 154.332031 155.964844 C 154.957031 156.679688 155.4375 158.007812 155.789062 159.742188 C 160.101562 160.519531 165.769531 156.042969 166.921875 152.023438 C 167.488281 150.066406 166.816406 148.730469 164.921875 148.039062 Z M 164.921875 148.039062"/><path fill="#27AAE1" d="M 111.398438 146.136719 C 95.300781 145.574219 82.976562 149.539062 75.472656 152.957031 C 67.339844 156.667969 62.957031 160.5625 62.914062 160.601562 C 63.101562 161.027344 63.261719 161.46875 63.402344 161.914062 C 64.054688 164.070312 63.917969 165.964844 62.992188 167.550781 C 62.265625 168.804688 61.394531 169.148438 60.726562 169.1875 C 60.648438 169.1875 60.578125 169.1875 60.503906 169.1875 C 57.699219 169.105469 54.785156 163.953125 54.042969 162.546875 C 54.019531 162.566406 53.992188 162.585938 53.964844 162.601562 L 41.632812 169.117188 C 41.511719 169.179688 41.382812 169.230469 41.246094 169.261719 C 41.109375 169.292969 40.972656 169.308594 40.835938 169.304688 C 40.695312 169.300781 40.5625 169.28125 40.425781 169.242188 C 40.292969 169.207031 40.167969 169.152344 40.046875 169.082031 C 39.925781 169.011719 39.820312 168.929688 39.71875 168.832031 C 39.621094 168.734375 39.539062 168.625 39.464844 168.503906 C 39.394531 168.386719 39.339844 168.261719 39.304688 168.128906 C 39.265625 167.992188 39.242188 167.859375 39.242188 167.71875 L 38.9375 155.660156 C 38.933594 155.53125 38.964844 155.414062 39.03125 155.304688 C 37.980469 152.953125 37.839844 150.433594 38.648438 148.46875 L 39.199219 146.8125 C 39.414062 146.148438 39.796875 145.601562 40.339844 145.167969 C 44.65625 141.78125 49.167969 138.683594 53.875 135.863281 C 54.097656 135.734375 54.320312 135.734375 54.546875 135.863281 C 54.765625 135.996094 54.875 136.191406 54.871094 136.449219 L 54.566406 150.546875 C 55.804688 151.546875 56.976562 152.621094 58.085938 153.761719 C 57.78125 148.539062 57.351562 131.941406 63.113281 122.15625 L 38.742188 140.785156 C 37.5 141.742188 36.3125 142.765625 35.1875 143.859375 C 34.058594 144.953125 32.996094 146.105469 32.003906 147.320312 C 31.007812 148.535156 30.085938 149.800781 29.238281 151.121094 C 28.390625 152.441406 27.621094 153.804688 26.929688 155.214844 C 26.238281 156.621094 25.628906 158.066406 25.101562 159.542969 C 24.578125 161.023438 24.136719 162.523438 23.785156 164.054688 C 23.433594 165.582031 23.167969 167.125 22.992188 168.683594 C 22.820312 170.242188 22.734375 171.808594 22.738281 173.375 L 22.863281 195.757812 C 23.125 193.09375 24.027344 190.664062 25.566406 188.46875 C 27.375 185.945312 29.738281 184.492188 32.398438 184.265625 C 35.058594 184.035156 37.1875 184.667969 38.773438 186.136719 C 40.9375 188.132812 41.429688 191.105469 41.542969 192.429688 L 42.648438 192.429688 C 42.515625 189.171875 42.738281 175.917969 54.628906 174.15625 C 58.148438 173.632812 61.101562 174.457031 63.410156 176.644531 C 67.757812 180.734375 68.894531 188.6875 69.128906 194.386719 C 74.714844 195.214844 122.378906 201.851562 153.402344 192.738281 C 154.277344 188.730469 154.925781 183.164062 155.203125 176.992188 C 155.644531 166.894531 154.878906 158.617188 153.339844 156.859375 C 147.710938 150.421875 133.992188 146.921875 111.398438 146.136719 Z M 36.660156 169.242188 C 36.667969 170.011719 36.476562 170.726562 36.082031 171.386719 C 35.6875 172.046875 35.152344 172.554688 34.472656 172.914062 L 26.304688 177.230469 C 26.21875 177.277344 26.128906 177.300781 26.035156 177.308594 C 25.859375 177.320312 25.703125 177.269531 25.570312 177.15625 C 25.433594 177.042969 25.355469 176.898438 25.335938 176.722656 C 25.296875 176.339844 24.441406 167.21875 29.023438 157.519531 C 30.007812 155.441406 31.769531 153.128906 34.207031 150.632812 C 34.394531 150.445312 34.617188 150.324219 34.878906 150.269531 C 35.140625 150.214844 35.394531 150.238281 35.644531 150.335938 C 35.890625 150.4375 36.089844 150.597656 36.242188 150.816406 C 36.394531 151.035156 36.472656 151.277344 36.476562 151.546875 Z M 36.660156 169.242188"/><path fill="#CAE6EF" d="M 30.222656 158.074219 C 26.65625 165.617188 26.515625 172.984375 26.597656 175.585938 L 33.851562 171.746094 C 34.316406 171.503906 34.679688 171.160156 34.945312 170.710938 C 35.214844 170.261719 35.34375 169.777344 35.335938 169.257812 L 35.160156 151.558594 C 32.796875 153.9375 31.136719 156.132812 30.222656 158.074219 Z M 30.222656 158.074219"/><path fill="#414042" d="M 94.925781 205.042969 C 94.925781 205.324219 95.128906 211.640625 102.984375 211.667969 C 110.261719 211.691406 111.675781 206.214844 111.910156 204.929688 C 106.492188 205.078125 100.597656 205.105469 94.914062 204.976562 C 94.921875 204.996094 94.921875 205.019531 94.925781 205.042969 Z M 94.925781 205.042969"/><path fill="#BCBEC0" d="M 69.164062 195.714844 C 69.199219 197.964844 69.105469 199.722656 69.050781 200.507812 C 73.90625 202.957031 91.089844 204.195312 112.296875 203.597656 C 133.207031 203.007812 149.652344 200.824219 151.40625 198.410156 C 151.992188 197.597656 152.550781 196.140625 153.054688 194.199219 C 144.964844 196.492188 135.8125 197.757812 126.589844 198.355469 C 100.589844 200.035156 74.035156 196.421875 69.164062 195.714844 Z M 69.164062 195.714844"/><path fill="#414042" d="M 120.78125 204.582031 C 120.945312 206.234375 121.625 207.636719 122.828125 208.785156 C 124.65625 210.488281 127.496094 211.21875 131.285156 210.988281 C 139.402344 210.460938 140.871094 204.660156 141.136719 202.71875 C 136.445312 203.425781 130.773438 203.960938 124.90625 204.339844 C 123.539062 204.429688 122.164062 204.507812 120.78125 204.582031 Z M 120.78125 204.582031"/><path fill="#0091C4" d="M 154.742188 153.578125 L 154.695312 153.855469 L 154.292969 154.339844 C 154.035156 154.796875 153.855469 155.15625 153.761719 155.355469 C 153.960938 155.554688 154.152344 155.761719 154.332031 155.964844 C 154.957031 156.675781 155.4375 158.003906 155.789062 159.738281 C 158.886719 160.296875 162.6875 158.140625 165.007812 155.394531 C 158.558594 160.066406 154.75 153.597656 154.742188 153.578125 Z M 154.742188 153.578125"/><path fill="#71DAFF" d="M 164.632812 148.484375 C 164.6875 148.679688 164.671875 148.886719 164.585938 149.105469 C 164.496094 149.328125 164.339844 149.542969 164.121094 149.757812 C 163.898438 149.96875 163.628906 150.164062 163.3125 150.339844 C 162.992188 150.511719 162.648438 150.652344 162.277344 150.761719 C 161.910156 150.871094 161.542969 150.9375 161.179688 150.964844 C 160.816406 150.988281 160.484375 150.972656 160.183594 150.914062 C 159.882812 150.851562 159.636719 150.753906 159.441406 150.617188 C 159.246094 150.476562 159.121094 150.3125 159.066406 150.121094 C 159.007812 149.925781 159.023438 149.71875 159.113281 149.5 C 159.199219 149.277344 159.355469 149.0625 159.578125 148.847656 C 159.796875 148.632812 160.066406 148.441406 160.386719 148.265625 C 160.707031 148.09375 161.050781 147.953125 161.417969 147.84375 C 161.789062 147.734375 162.152344 147.667969 162.515625 147.640625 C 162.878906 147.617188 163.210938 147.632812 163.511719 147.691406 C 163.8125 147.753906 164.0625 147.851562 164.253906 147.988281 C 164.449219 148.125 164.574219 148.292969 164.632812 148.484375 Z M 164.632812 148.484375"/><path fill="#71DAFF" d="M 154.597656 153.816406 L 154.695312 153.859375 L 154.742188 153.582031 Z M 154.597656 153.816406"/><path fill="#71DAFF" d="M 164.921875 148.039062 C 160.089844 146.292969 156.441406 150.824219 154.742188 153.582031 C 154.742188 153.582031 161.804688 145.65625 166.09375 150.042969 C 167.359375 151.335938 166.644531 153.289062 165.011719 155.402344 C 165.882812 154.414062 166.523438 153.289062 166.921875 152.03125 C 167.488281 150.066406 166.816406 148.730469 164.921875 148.039062 Z M 164.921875 148.039062"/><path fill="#71DAFF" d="M 152.523438 154.207031 C 153.257812 146.183594 152.9375 138.203125 151.5625 130.265625 C 151.355469 129.097656 151.03125 127.964844 150.589844 126.863281 C 150.148438 125.761719 149.597656 124.71875 148.945312 123.726562 C 148.289062 122.738281 147.539062 121.828125 146.699219 120.988281 C 145.855469 120.152344 144.9375 119.410156 143.945312 118.761719 C 128.738281 108.9375 111.945312 107.746094 100.542969 108.484375 L 100.519531 108.484375 C 87.609375 109.316406 74.878906 113.195312 68.066406 118.363281 C 68.066406 118.363281 96.480469 104.976562 124.273438 113.515625 C 125.15625 113.703125 126.023438 113.902344 126.871094 114.125 C 135.457031 116.289062 142.160156 119.828125 146.265625 124.328125 C 150.453125 128.933594 152.308594 138.792969 151.792969 153.636719 C 152.039062 153.824219 152.277344 154.015625 152.523438 154.207031 Z M 152.523438 154.207031"/><path fill="#FFF" d="M 145.289062 125.21875 C 136.144531 115.175781 115.96875 112.417969 101.460938 113.113281 C 101.460938 113.113281 127.855469 118.363281 137.726562 147.800781 C 143.085938 149.0625 147.324219 150.707031 150.484375 152.746094 C 150.90625 138.730469 149.171875 129.46875 145.289062 125.21875 Z M 145.289062 125.21875"/><path fill="#FFF" d="M 96.160156 113.523438 C 96.160156 113.523438 116.328125 121.1875 128.027344 138.753906 C 128.027344 138.753906 112.078125 120.679688 92.699219 113.746094 Z M 96.160156 113.523438"/><path fill="#71DAFF" d="M 155.203125 176.976562 C 155.644531 166.878906 154.878906 158.601562 153.339844 156.84375 C 147.710938 150.421875 133.992188 146.921875 111.398438 146.136719 C 103.652344 145.84375 96.019531 146.617188 88.496094 148.460938 C 92.792969 148.097656 136.761719 144.882812 147.992188 164.246094 C 152.890625 172.703125 153.917969 183.179688 153.4375 192.542969 C 154.292969 188.550781 154.933594 183.058594 155.203125 176.976562 Z M 155.203125 176.976562"/><path fill="#71DAFF" d="M 125.296875 145.964844 C 126.042969 146.125 126.777344 146.308594 127.496094 146.515625 C 128.21875 146.726562 128.910156 146.957031 129.578125 147.210938 C 130.246094 147.460938 130.871094 147.730469 131.460938 148.015625 C 132.046875 148.300781 132.585938 148.597656 133.070312 148.90625 C 133.554688 149.214844 133.980469 149.527344 134.347656 149.84375 C 134.714844 150.160156 135.011719 150.480469 135.242188 150.796875 C 135.472656 151.113281 135.632812 151.421875 135.722656 151.722656 C 135.808594 152.023438 135.824219 152.316406 135.765625 152.589844 C 135.707031 152.867188 135.574219 153.125 135.371094 153.367188 C 135.167969 153.609375 134.894531 153.824219 134.554688 154.019531 C 134.214844 154.214844 133.8125 154.382812 133.351562 154.527344 C 132.886719 154.667969 132.371094 154.78125 131.800781 154.863281 C 131.234375 154.949219 130.621094 155 129.96875 155.023438 C 129.316406 155.046875 128.632812 155.035156 127.921875 154.996094 C 127.207031 154.957031 126.480469 154.886719 125.738281 154.785156 C 124.996094 154.683594 124.25 154.550781 123.503906 154.394531 C 122.757812 154.234375 122.023438 154.050781 121.304688 153.84375 C 120.582031 153.632812 119.890625 153.402344 119.222656 153.152344 C 118.558594 152.898438 117.929688 152.628906 117.34375 152.34375 C 116.753906 152.058594 116.21875 151.761719 115.730469 151.453125 C 115.246094 151.148438 114.820312 150.835938 114.453125 150.515625 C 114.089844 150.199219 113.789062 149.882812 113.558594 149.566406 C 113.328125 149.25 113.167969 148.9375 113.082031 148.636719 C 112.992188 148.335938 112.980469 148.046875 113.039062 147.769531 C 113.097656 147.492188 113.226562 147.234375 113.429688 146.992188 C 113.632812 146.753906 113.90625 146.535156 114.246094 146.339844 C 114.585938 146.144531 114.988281 145.976562 115.453125 145.832031 C 115.914062 145.691406 116.429688 145.578125 117 145.496094 C 117.570312 145.410156 118.179688 145.359375 118.832031 145.335938 C 119.488281 145.3125 120.167969 145.324219 120.882812 145.363281 C 121.59375 145.40625 122.320312 145.476562 123.0625 145.578125 C 123.808594 145.679688 124.550781 145.808594 125.296875 145.964844 Z M 125.296875 145.964844"/><path fill="#71DAFF" d="M 109.109375 149.804688 C 109.691406 149.929688 110.238281 150.113281 110.75 150.359375 C 111.261719 150.605469 111.699219 150.894531 112.0625 151.226562 C 112.421875 151.558594 112.679688 151.910156 112.835938 152.273438 C 112.992188 152.640625 113.03125 152.996094 112.960938 153.34375 C 112.886719 153.6875 112.703125 153.996094 112.410156 154.269531 C 112.121094 154.539062 111.742188 154.753906 111.277344 154.910156 C 110.8125 155.066406 110.296875 155.152344 109.726562 155.171875 C 109.160156 155.1875 108.582031 155.136719 108 155.011719 C 107.414062 154.886719 106.867188 154.703125 106.355469 154.457031 C 105.84375 154.210938 105.40625 153.921875 105.046875 153.589844 C 104.683594 153.257812 104.425781 152.90625 104.269531 152.539062 C 104.113281 152.175781 104.074219 151.816406 104.148438 151.472656 C 104.222656 151.128906 104.402344 150.820312 104.695312 150.546875 C 104.988281 150.277344 105.363281 150.0625 105.828125 149.90625 C 106.296875 149.75 106.8125 149.660156 107.378906 149.644531 C 107.949219 149.625 108.523438 149.679688 109.109375 149.804688 Z M 109.109375 149.804688"/><path fill="#0091C4" d="M 118.5625 197.394531 C 60.355469 195.453125 69.539062 156.015625 69.539062 156.015625 C 65.226562 158.53125 62.945312 160.558594 62.914062 160.578125 C 63.101562 161.007812 63.261719 161.445312 63.402344 161.894531 C 64.054688 164.046875 63.917969 165.941406 62.992188 167.527344 C 62.265625 168.78125 61.394531 169.125 60.726562 169.167969 C 60.648438 169.167969 60.578125 169.167969 60.503906 169.167969 C 57.699219 169.082031 54.785156 163.929688 54.042969 162.527344 C 54.019531 162.546875 53.992188 162.566406 53.964844 162.582031 L 41.632812 169.117188 C 41.511719 169.179688 41.382812 169.230469 41.246094 169.261719 C 41.109375 169.292969 40.972656 169.308594 40.835938 169.304688 C 40.695312 169.300781 40.5625 169.28125 40.425781 169.242188 C 40.292969 169.207031 40.167969 169.152344 40.046875 169.082031 C 39.925781 169.011719 39.820312 168.929688 39.71875 168.832031 C 39.621094 168.734375 39.539062 168.625 39.464844 168.503906 C 39.394531 168.386719 39.339844 168.261719 39.304688 168.128906 C 39.265625 167.992188 39.242188 167.859375 39.242188 167.71875 L 38.9375 155.660156 C 38.933594 155.53125 38.964844 155.414062 39.03125 155.304688 C 37.980469 152.953125 37.839844 150.433594 38.648438 148.46875 L 39.199219 146.8125 C 39.414062 146.148438 39.796875 145.601562 40.339844 145.167969 C 44.65625 141.78125 49.167969 138.683594 53.875 135.863281 C 54.097656 135.734375 54.320312 135.734375 54.546875 135.863281 C 54.765625 135.996094 54.875 136.191406 54.871094 136.449219 L 54.566406 150.546875 C 55.804688 151.546875 56.976562 152.621094 58.085938 153.761719 C 57.78125 148.539062 57.351562 131.941406 63.113281 122.15625 L 38.742188 140.785156 C 37.5 141.742188 36.3125 142.765625 35.1875 143.859375 C 34.058594 144.953125 32.996094 146.105469 32.003906 147.320312 C 31.007812 148.535156 30.085938 149.800781 29.238281 151.121094 C 28.390625 152.441406 27.621094 153.804688 26.929688 155.214844 C 26.238281 156.621094 25.628906 158.066406 25.101562 159.542969 C 24.578125 161.023438 24.136719 162.523438 23.785156 164.054688 C 23.433594 165.582031 23.167969 167.125 22.992188 168.683594 C 22.820312 170.242188 22.734375 171.808594 22.738281 173.375 L 22.863281 195.757812 C 23.125 193.09375 24.027344 190.664062 25.566406 188.46875 C 27.375 185.945312 29.738281 184.492188 32.398438 184.265625 C 35.058594 184.035156 37.1875 184.667969 38.773438 186.136719 C 40.9375 188.132812 41.429688 191.105469 41.542969 192.429688 L 42.648438 192.429688 C 42.515625 189.171875 42.738281 175.917969 54.628906 174.15625 C 58.148438 173.632812 61.101562 174.457031 63.410156 176.644531 C 67.757812 180.734375 68.894531 188.6875 69.128906 194.386719 C 72.828125 194.921875 95 198.019531 118.5625 197.394531 Z M 36.660156 169.242188 C 36.667969 170.011719 36.476562 170.726562 36.082031 171.386719 C 35.6875 172.046875 35.152344 172.554688 34.472656 172.914062 L 26.304688 177.230469 C 26.21875 177.277344 26.128906 177.300781 26.035156 177.308594 C 25.859375 177.320312 25.703125 177.269531 25.570312 177.15625 C 25.433594 177.042969 25.355469 176.898438 25.335938 176.722656 C 25.296875 176.339844 24.441406 167.21875 29.023438 157.519531 C 30.007812 155.441406 31.769531 153.128906 34.207031 150.632812 C 34.394531 150.445312 34.617188 150.324219 34.878906 150.269531 C 35.140625 150.214844 35.394531 150.238281 35.644531 150.335938 C 35.890625 150.4375 36.089844 150.597656 36.242188 150.816406 C 36.394531 151.035156 36.472656 151.277344 36.476562 151.546875 Z M 36.660156 169.242188"/><path fill="#0091C4" d="M 61.300781 130.261719 C 58.355469 141.386719 59.492188 155.035156 59.507812 155.234375 C 59.507812 155.265625 59.507812 155.300781 59.507812 155.335938 C 60.582031 156.585938 61.519531 157.933594 62.316406 159.378906 C 62.527344 159.199219 62.859375 158.929688 63.304688 158.589844 C 63.25 158.503906 63.21875 158.410156 63.207031 158.308594 C 62.886719 154.554688 62.816406 150.796875 63 147.03125 C 58.511719 148.394531 61.132812 130.992188 61.300781 130.261719 Z M 61.300781 130.261719"/><path fill="#0091C4" d="M 54.351562 152.105469 C 54.382812 152.144531 58.050781 156.648438 54.046875 157.761719 C 50.039062 158.875 41.246094 158.613281 39.492188 151 C 39.464844 152.992188 40.03125 154.796875 41.195312 156.417969 C 45.0625 161.941406 59.363281 161.082031 59.507812 161.070312 C 59.6875 161.0625 59.847656 161.121094 59.980469 161.238281 C 60.113281 161.359375 60.1875 161.507812 60.199219 161.6875 C 60.210938 161.867188 60.15625 162.027344 60.039062 162.160156 C 59.921875 162.296875 59.773438 162.375 59.59375 162.390625 C 59.390625 162.390625 57.765625 162.5 55.488281 162.425781 C 56.792969 164.769531 59.007812 167.832031 60.554688 167.878906 C 60.734375 167.878906 61.273438 167.898438 61.863281 166.890625 C 62.597656 165.632812 62.691406 164.089844 62.148438 162.300781 C 61.097656 158.910156 57.964844 155.15625 54.351562 152.105469 Z M 54.351562 152.105469"/><path fill="#71DAFF" d="M 45.933594 146.542969 C 46.523438 146.667969 47.082031 146.839844 47.601562 147.058594 C 48.125 147.28125 48.574219 147.53125 48.949219 147.8125 C 49.328125 148.089844 49.601562 148.382812 49.773438 148.679688 C 49.945312 148.980469 50 149.265625 49.945312 149.535156 C 49.886719 149.808594 49.71875 150.046875 49.4375 150.25 C 49.160156 150.453125 48.789062 150.605469 48.332031 150.710938 C 47.875 150.816406 47.363281 150.859375 46.796875 150.847656 C 46.230469 150.835938 45.652344 150.769531 45.0625 150.644531 C 44.472656 150.519531 43.917969 150.347656 43.394531 150.128906 C 42.871094 149.90625 42.421875 149.65625 42.046875 149.375 C 41.671875 149.097656 41.398438 148.804688 41.226562 148.507812 C 41.054688 148.207031 40.996094 147.921875 41.054688 147.652344 C 41.113281 147.378906 41.28125 147.140625 41.558594 146.9375 C 41.839844 146.734375 42.207031 146.582031 42.664062 146.476562 C 43.121094 146.375 43.632812 146.328125 44.203125 146.339844 C 44.769531 146.351562 45.347656 146.417969 45.933594 146.542969 Z M 45.933594 146.542969"/><path fill="#71DAFF" d="M 54.351562 152.105469 C 52.191406 150.257812 49.847656 148.691406 47.3125 147.40625 C 44.453125 146.003906 42.015625 146.136719 40.609375 147.761719 C 40.289062 148.136719 40.042969 148.558594 39.863281 149.015625 L 39.671875 149.585938 C 39.671875 149.585938 42.8125 144.453125 54.351562 152.105469 Z M 54.351562 152.105469"/><path fill="#27AAE1" d="M 58.082031 153.761719 C 57.777344 148.539062 57.347656 131.941406 63.105469 122.15625 L 38.742188 140.785156 C 37.316406 141.875 35.972656 143.058594 34.703125 144.328125 L 56.320312 129.5 C 56.539062 129.351562 56.78125 129.273438 57.046875 129.269531 C 57.3125 129.265625 57.558594 129.339844 57.78125 129.484375 C 58.003906 129.628906 58.167969 129.824219 58.273438 130.066406 C 58.375 130.3125 58.402344 130.5625 58.355469 130.824219 C 57.5 135.34375 56.390625 144.058594 58.082031 153.761719 Z M 58.082031 153.761719"/><path fill="#E6E7E8" d="M 153.054688 194.199219 C 144.964844 196.492188 135.8125 197.757812 126.589844 198.355469 C 118.460938 198.878906 110.277344 198.886719 102.71875 198.628906 C 102.71875 198.628906 127.4375 201.910156 149.382812 196.902344 C 149.621094 196.847656 149.859375 196.84375 150.097656 196.894531 C 150.335938 196.945312 150.554688 197.042969 150.75 197.191406 C 150.941406 197.335938 151.097656 197.519531 151.214844 197.734375 C 151.328125 197.949219 151.390625 198.179688 151.40625 198.421875 C 151.992188 197.597656 152.550781 196.140625 153.054688 194.199219 Z M 153.054688 194.199219"/><path fill="#939598" d="M 81.785156 197.222656 C 75.464844 196.601562 70.914062 195.96875 69.164062 195.703125 C 69.199219 197.953125 69.105469 199.710938 69.050781 200.496094 C 73.257812 202.628906 86.726562 203.828125 104.03125 203.726562 C 74.8125 203.714844 81.785156 197.222656 81.785156 197.222656 Z M 81.785156 197.222656"/><path fill="#A7A9AC" d="M 45.085938 188.734375 C 45.789062 185.082031 48.683594 174.902344 58.761719 177.4375 C 58.859375 177.464844 58.898438 177.523438 58.882812 177.621094 C 58.867188 177.71875 58.808594 177.765625 58.710938 177.761719 C 55.085938 177.457031 48.113281 178.34375 45.199219 188.757812 C 45.1875 188.789062 45.164062 188.800781 45.132812 188.792969 C 45.097656 188.789062 45.082031 188.769531 45.085938 188.734375 Z M 45.085938 188.734375"/><path fill="#A7A9AC" d="M 25.980469 194.207031 C 26.363281 192.210938 27.953125 186.621094 33.484375 188.011719 C 33.53125 188.027344 33.550781 188.0625 33.539062 188.109375 C 33.53125 188.160156 33.503906 188.1875 33.453125 188.1875 C 31.464844 188.019531 27.636719 188.507812 26.042969 194.21875 C 26.03125 194.257812 25.972656 194.246094 25.980469 194.207031 Z M 25.980469 194.207031"/><path fill="#414042" d="M 58.457031 210.621094 C 63.546875 210.292969 67.382812 207.253906 69.292969 202.058594 C 68.851562 201.890625 68.425781 201.6875 68.019531 201.449219 C 53.121094 219.585938 44.046875 194.910156 44.046875 194.910156 C 44.640625 204.050781 51.105469 211.105469 58.457031 210.621094 Z M 58.457031 210.621094"/><path fill="#414042" d="M 24.308594 198.050781 L 24.308594 198.074219 C 24.316406 198.101562 24.320312 198.132812 24.324219 198.164062 C 24.761719 204.910156 29.785156 210.097656 35.519531 209.726562 C 40.070312 209.433594 42.976562 204.714844 42.902344 197.714844 C 42.902344 197.582031 42.9375 197.460938 43.011719 197.351562 C 42.875 196.578125 42.777344 195.796875 42.726562 195.015625 C 42.699219 194.589844 42.691406 194.167969 42.683594 193.75 L 40.921875 193.75 C 40.921875 193.75 42.355469 208.785156 32.65625 207.699219 C 22.953125 206.613281 25.320312 191.574219 25.320312 191.574219 C 24.25 193.972656 23.917969 196.523438 24.308594 198.050781 Z M 24.308594 198.050781"/><path fill="#002028" d="M 98.855469 159.316406 C 98.894531 159.90625 98.898438 160.496094 98.863281 161.082031 C 98.832031 161.667969 98.765625 162.238281 98.660156 162.792969 C 98.558594 163.351562 98.421875 163.878906 98.253906 164.386719 C 98.085938 164.890625 97.886719 165.363281 97.660156 165.796875 C 97.429688 166.234375 97.175781 166.625 96.898438 166.972656 C 96.617188 167.320312 96.320312 167.621094 96 167.867188 C 95.679688 168.117188 95.347656 168.308594 95 168.449219 C 94.65625 168.585938 94.300781 168.667969 93.9375 168.691406 C 93.578125 168.714844 93.214844 168.679688 92.855469 168.585938 C 92.492188 168.492188 92.136719 168.34375 91.789062 168.140625 C 91.441406 167.933594 91.105469 167.675781 90.785156 167.367188 C 90.460938 167.058594 90.160156 166.703125 89.878906 166.300781 C 89.59375 165.898438 89.335938 165.457031 89.105469 164.976562 C 88.871094 164.496094 88.667969 163.988281 88.496094 163.449219 C 88.320312 162.910156 88.179688 162.355469 88.074219 161.777344 C 87.964844 161.203125 87.890625 160.617188 87.851562 160.023438 C 87.816406 159.433594 87.8125 158.84375 87.84375 158.257812 C 87.878906 157.671875 87.945312 157.101562 88.046875 156.546875 C 88.152344 155.988281 88.289062 155.457031 88.457031 154.953125 C 88.625 154.449219 88.824219 153.976562 89.050781 153.542969 C 89.28125 153.105469 89.535156 152.714844 89.8125 152.367188 C 90.089844 152.019531 90.390625 151.71875 90.710938 151.472656 C 91.027344 151.222656 91.363281 151.03125 91.707031 150.890625 C 92.054688 150.753906 92.410156 150.671875 92.769531 150.648438 C 93.132812 150.625 93.492188 150.660156 93.855469 150.753906 C 94.21875 150.847656 94.570312 150.996094 94.921875 151.199219 C 95.269531 151.40625 95.605469 151.664062 95.925781 151.972656 C 96.246094 152.28125 96.550781 152.636719 96.832031 153.039062 C 97.113281 153.441406 97.371094 153.882812 97.605469 154.363281 C 97.835938 154.84375 98.039062 155.351562 98.214844 155.890625 C 98.386719 156.429688 98.527344 156.984375 98.636719 157.5625 C 98.746094 158.136719 98.816406 158.722656 98.855469 159.316406 Z M 98.855469 159.316406"/><path fill="#002028" d="M 144.546875 159.144531 C 144.582031 159.738281 144.585938 160.328125 144.554688 160.914062 C 144.519531 161.5 144.453125 162.070312 144.351562 162.625 C 144.246094 163.179688 144.113281 163.710938 143.941406 164.21875 C 143.773438 164.722656 143.574219 165.195312 143.347656 165.628906 C 143.117188 166.0625 142.867188 166.457031 142.585938 166.804688 C 142.308594 167.152344 142.007812 167.449219 141.6875 167.699219 C 141.371094 167.949219 141.039062 168.140625 140.691406 168.28125 C 140.34375 168.417969 139.988281 168.5 139.628906 168.523438 C 139.265625 168.546875 138.90625 168.511719 138.542969 168.417969 C 138.183594 168.324219 137.828125 168.175781 137.480469 167.972656 C 137.128906 167.765625 136.796875 167.507812 136.472656 167.199219 C 136.152344 166.890625 135.851562 166.535156 135.566406 166.132812 C 135.285156 165.730469 135.027344 165.289062 134.792969 164.808594 C 134.5625 164.328125 134.359375 163.820312 134.183594 163.28125 C 134.011719 162.742188 133.871094 162.1875 133.761719 161.609375 C 133.652344 161.03125 133.582031 160.449219 133.542969 159.855469 C 133.503906 159.265625 133.5 158.675781 133.535156 158.089844 C 133.566406 157.503906 133.636719 156.933594 133.738281 156.378906 C 133.839844 155.820312 133.976562 155.289062 134.144531 154.785156 C 134.3125 154.28125 134.511719 153.808594 134.742188 153.375 C 134.96875 152.9375 135.222656 152.546875 135.5 152.199219 C 135.78125 151.851562 136.078125 151.550781 136.398438 151.304688 C 136.71875 151.054688 137.050781 150.863281 137.398438 150.722656 C 137.746094 150.585938 138.097656 150.503906 138.460938 150.480469 C 138.820312 150.457031 139.183594 150.492188 139.542969 150.585938 C 139.90625 150.675781 140.261719 150.828125 140.609375 151.03125 C 140.957031 151.238281 141.292969 151.492188 141.613281 151.804688 C 141.9375 152.113281 142.238281 152.46875 142.519531 152.871094 C 142.804688 153.273438 143.0625 153.714844 143.292969 154.195312 C 143.527344 154.675781 143.730469 155.183594 143.902344 155.722656 C 144.078125 156.257812 144.21875 156.816406 144.324219 157.394531 C 144.433594 157.96875 144.507812 158.554688 144.546875 159.144531 Z M 144.546875 159.144531"/><path fill="#002028" d="M 134.820312 172.765625 C 128.085938 179.355469 120.257812 181.792969 111.566406 180.019531 C 107.519531 179.175781 103.785156 177.601562 100.355469 175.296875 C 100.171875 175.164062 99.96875 175.113281 99.742188 175.148438 C 99.515625 175.179688 99.335938 175.289062 99.199219 175.472656 C 99.066406 175.65625 99.015625 175.859375 99.046875 176.085938 C 99.082031 176.308594 99.191406 176.488281 99.375 176.625 C 102.972656 179.074219 106.90625 180.738281 111.171875 181.621094 C 113.597656 182.128906 116.046875 182.308594 118.519531 182.152344 C 123.871094 181.808594 130.046875 179.742188 135.976562 173.9375 C 136.140625 173.777344 136.222656 173.585938 136.226562 173.355469 C 136.230469 173.128906 136.148438 172.933594 135.988281 172.769531 C 135.828125 172.609375 135.636719 172.527344 135.40625 172.523438 C 135.179688 172.523438 134.984375 172.601562 134.820312 172.761719 Z M 134.820312 172.765625"/><path fill="#002028" d="M 132.761719 141.894531 C 134.5 142.328125 136.457031 141.933594 138.25 142.320312 C 140.058594 142.707031 141.757812 143.382812 143.339844 144.34375 C 144.230469 144.890625 145.085938 145.527344 146.082031 145.863281 C 147.078125 146.203125 148.261719 146.199219 149.066406 145.527344 C 149.871094 144.855469 150.0625 143.777344 149.851562 142.808594 C 149.582031 141.828125 149.082031 140.984375 148.351562 140.277344 C 147.714844 139.621094 147.011719 139.046875 146.242188 138.554688 C 145.46875 138.066406 144.648438 137.675781 143.78125 137.378906 C 142.914062 137.085938 142.027344 136.898438 141.113281 136.816406 C 140.203125 136.734375 139.292969 136.761719 138.390625 136.898438 C 136.925781 137.140625 128.894531 140.929688 132.761719 141.894531 Z M 132.761719 141.894531"/><path fill="#002028" d="M 81.882812 143.144531 C 82.914062 142.972656 83.863281 142.488281 84.835938 142.097656 C 86.558594 141.417969 88.34375 141.039062 90.195312 140.964844 C 92.023438 140.882812 93.894531 141.601562 95.679688 141.46875 C 99.644531 141.164062 92.378906 136.078125 90.976562 135.601562 C 90.105469 135.316406 89.214844 135.136719 88.300781 135.0625 C 87.390625 134.988281 86.480469 135.023438 85.578125 135.167969 C 84.671875 135.3125 83.796875 135.558594 82.953125 135.914062 C 82.109375 136.265625 81.316406 136.710938 80.582031 137.253906 C 79.742188 137.828125 79.109375 138.574219 78.679688 139.496094 C 78.304688 140.410156 78.347656 141.554688 78.984375 142.3125 C 79.617188 143.070312 80.847656 143.316406 81.882812 143.144531 Z M 81.882812 143.144531"/><path fill="#002028" d="M 165.425781 146.644531 C 160.59375 144.898438 156.605469 148.242188 154.1875 151.664062 C 154.652344 144.398438 154.261719 137.175781 153.011719 130.003906 C 152.785156 128.738281 152.429688 127.507812 151.953125 126.3125 C 151.472656 125.117188 150.878906 123.984375 150.167969 122.914062 C 149.457031 121.839844 148.644531 120.851562 147.730469 119.945312 C 146.816406 119.039062 145.820312 118.234375 144.738281 117.53125 C 129.199219 107.488281 112.066406 106.273438 100.4375 107.015625 C 87.261719 107.863281 74.203125 111.847656 67.164062 117.183594 L 37.839844 139.601562 C 36.546875 140.59375 35.320312 141.65625 34.152344 142.789062 C 32.984375 143.921875 31.886719 145.117188 30.855469 146.375 C 29.824219 147.632812 28.871094 148.949219 27.992188 150.316406 C 27.113281 151.683594 26.3125 153.097656 25.597656 154.558594 C 24.878906 156.015625 24.25 157.511719 23.703125 159.042969 C 23.160156 160.574219 22.703125 162.132812 22.339844 163.714844 C 21.972656 165.300781 21.699219 166.898438 21.515625 168.515625 C 21.335938 170.128906 21.246094 171.75 21.25 173.375 L 21.386719 197.5625 C 21.382812 197.925781 21.546875 198.175781 21.875 198.324219 L 22.882812 198.773438 C 23.589844 206.078125 29.207031 211.636719 35.613281 211.222656 C 39.082031 210.996094 43.015625 208.324219 44.101562 201.757812 C 46.742188 208.203125 52.359375 212.519531 58.554688 212.117188 C 64.152344 211.753906 68.535156 208.332031 70.652344 202.683594 C 75.492188 204.105469 84.101562 204.832031 93.433594 205.101562 C 93.457031 205.726562 93.972656 213.117188 102.972656 213.152344 C 103.328125 213.152344 103.671875 213.152344 104.003906 213.117188 C 111.660156 212.625 113.144531 206.304688 113.382812 205.046875 C 114.664062 205.007812 116.738281 204.925781 119.304688 204.800781 C 119.40625 205.761719 119.671875 206.675781 120.101562 207.542969 C 120.527344 208.410156 121.09375 209.175781 121.792969 209.84375 C 123.925781 211.855469 127.148438 212.738281 131.382812 212.464844 C 140.832031 211.859375 142.382812 204.621094 142.632812 202.636719 C 147.644531 201.808594 151.5625 200.714844 152.601562 199.289062 C 153.425781 198.148438 154.125 196.160156 154.691406 193.71875 C 154.828125 193.527344 154.875 193.320312 154.832031 193.089844 C 155.875 188.378906 156.460938 182.199219 156.6875 177.027344 C 156.925781 171.621094 156.855469 165.621094 156.21875 161.289062 C 156.574219 161.316406 156.925781 161.316406 157.28125 161.289062 C 161.980469 160.988281 167.160156 156.578125 168.351562 152.425781 C 169.125 149.753906 168.03125 147.582031 165.425781 146.644531 Z M 100.542969 108.648438 C 111.925781 107.914062 128.671875 109.097656 143.84375 118.902344 C 144.828125 119.542969 145.738281 120.28125 146.570312 121.109375 C 147.40625 121.9375 148.144531 122.839844 148.792969 123.820312 C 149.441406 124.800781 149.984375 125.835938 150.421875 126.925781 C 150.855469 128.015625 151.179688 129.140625 151.382812 130.296875 C 152.738281 138.113281 153.066406 145.976562 152.371094 153.882812 C 152.238281 153.773438 152.101562 153.664062 151.960938 153.558594 C 152.46875 138.71875 150.597656 128.84375 146.390625 124.21875 C 142.269531 119.6875 135.535156 116.136719 126.925781 113.957031 C 119.304688 112.03125 110.242188 111.21875 101.398438 111.632812 C 86.269531 112.359375 74.140625 116.460938 69.753906 122.332031 C 60.777344 134.347656 62.953125 157.34375 63.046875 158.316406 C 63.058594 158.390625 63.074219 158.460938 63.101562 158.53125 C 62.796875 158.765625 62.558594 158.964844 62.371094 159.113281 C 61.597656 157.75 60.699219 156.46875 59.675781 155.277344 C 59.679688 155.257812 59.679688 155.238281 59.675781 155.21875 C 59.652344 154.933594 57.304688 126.746094 68.167969 118.496094 C 74.957031 113.34375 87.652344 109.480469 100.519531 108.648438 Z M 64.625 157.402344 C 64.320312 153.332031 63.351562 133.648438 71.066406 123.324219 C 75.105469 117.921875 87.039062 113.980469 101.46875 113.285156 C 115.898438 112.589844 136.066406 115.320312 145.167969 125.328125 C 148.976562 129.515625 150.714844 138.640625 150.347656 152.441406 C 143.046875 147.878906 130.234375 145.304688 111.453125 144.652344 C 95.027344 144.082031 82.457031 148.121094 74.8125 151.632812 C 71.238281 153.242188 67.84375 155.164062 64.625 157.402344 Z M 59.480469 160.902344 C 59.339844 160.902344 45.132812 161.761719 41.3125 156.316406 C 39.820312 154.1875 39.308594 151.628906 39.835938 149.648438 L 39.835938 149.632812 L 40.019531 149.066406 C 40.195312 148.621094 40.433594 148.214844 40.738281 147.847656 C 42.097656 146.261719 44.394531 146.152344 47.230469 147.542969 C 53.019531 150.375 60.300781 156.839844 61.964844 162.34375 C 62.496094 164.085938 62.40625 165.582031 61.695312 166.800781 C 61.15625 167.714844 60.6875 167.714844 60.535156 167.714844 C 59.175781 167.675781 57.097656 164.957031 55.75 162.597656 C 57.882812 162.65625 59.378906 162.5625 59.578125 162.554688 C 59.808594 162.539062 59.996094 162.445312 60.144531 162.273438 C 60.296875 162.101562 60.363281 161.902344 60.351562 161.675781 C 60.335938 161.449219 60.242188 161.261719 60.070312 161.109375 C 59.898438 160.960938 59.699219 160.894531 59.472656 160.90625 Z M 53.105469 149.214844 C 51.484375 148.015625 49.773438 146.964844 47.96875 146.066406 C 46.171875 145.1875 44.488281 144.828125 43.023438 144.976562 C 47.246094 141.761719 51.34375 139.148438 53.351562 137.910156 Z M 40.488281 157.925781 C 42.886719 160.609375 47.378906 161.785156 51.40625 162.277344 L 40.9375 167.816406 C 40.890625 167.84375 40.84375 167.84375 40.796875 167.816406 C 40.75 167.792969 40.726562 167.753906 40.726562 167.699219 Z M 42.738281 197.714844 C 42.808594 204.632812 39.972656 209.277344 35.507812 209.582031 C 29.863281 209.945312 24.921875 204.828125 24.492188 198.171875 C 24.488281 198.128906 24.480469 198.085938 24.46875 198.042969 C 23.976562 196.039062 24.703125 192.261719 26.777344 189.363281 C 27.859375 187.855469 29.730469 186.015625 32.527344 185.773438 C 34.734375 185.582031 36.488281 186.078125 37.761719 187.246094 C 40.074219 189.375 40.09375 193.078125 40.09375 193.117188 C 40.09375 193.347656 40.171875 193.542969 40.335938 193.703125 C 40.5 193.867188 40.695312 193.945312 40.925781 193.945312 L 42.523438 193.945312 C 42.523438 194.3125 42.539062 194.683594 42.566406 195.050781 C 42.617188 195.824219 42.707031 196.589844 42.839844 197.351562 C 42.777344 197.464844 42.742188 197.585938 42.738281 197.714844 Z M 58.449219 210.472656 C 51.183594 210.941406 44.796875 203.960938 44.210938 194.914062 C 44.171875 194.304688 44.160156 193.695312 44.171875 193.089844 C 44.171875 193.070312 44.171875 193.054688 44.171875 193.035156 C 44.171875 193.019531 44.171875 193.003906 44.171875 192.988281 C 43.976562 190.242188 44.234375 187.539062 44.945312 184.875 C 46.46875 179.476562 49.792969 176.359375 54.847656 175.605469 C 57.929688 175.148438 60.398438 175.835938 62.390625 177.707031 C 68.949219 183.882812 67.550781 200.644531 67.535156 200.8125 C 67.503906 201.15625 67.636719 201.417969 67.9375 201.59375 C 68.304688 201.808594 68.691406 201.996094 69.089844 202.152344 C 67.191406 207.195312 63.421875 210.140625 58.449219 210.457031 Z M 102.980469 211.515625 C 95.730469 211.488281 95.136719 206.011719 95.085938 205.160156 C 100.644531 205.28125 106.390625 205.253906 111.699219 205.113281 C 111.382812 206.632812 109.792969 211.53125 102.980469 211.503906 Z M 131.285156 210.835938 C 127.542969 211.078125 124.742188 210.347656 122.957031 208.679688 C 121.820312 207.597656 121.160156 206.277344 120.96875 204.722656 C 122.152344 204.660156 123.40625 204.582031 124.71875 204.5 C 129.898438 204.167969 135.855469 203.660156 140.953125 202.90625 C 140.601562 204.984375 138.972656 210.324219 131.285156 210.824219 Z M 151.269531 198.324219 C 149.828125 200.316406 135.675781 202.789062 112.292969 203.445312 C 91.242188 204.039062 74.175781 202.835938 69.222656 200.425781 C 69.277344 199.613281 69.359375 197.988281 69.332031 195.914062 C 74.675781 196.6875 100.90625 200.175781 126.601562 198.527344 C 135.742188 197.941406 144.792969 196.703125 152.808594 194.449219 C 152.347656 196.214844 151.824219 197.550781 151.269531 198.324219 Z M 155.039062 176.980469 C 154.769531 183.101562 154.125 188.617188 153.265625 192.609375 C 122.523438 201.59375 75.480469 195.152344 69.285156 194.242188 C 69.046875 188.523438 67.871094 180.613281 63.523438 176.523438 C 61.171875 174.308594 58.171875 173.453125 54.601562 173.988281 C 48.929688 174.832031 45.035156 178.445312 43.355469 184.445312 C 42.667969 187 42.371094 189.597656 42.46875 192.238281 L 41.695312 192.238281 C 41.554688 190.828125 41.011719 187.953125 38.886719 185.992188 C 37.261719 184.492188 35.074219 183.863281 32.382812 184.078125 C 29.691406 184.296875 27.269531 185.808594 25.441406 188.371094 C 24.292969 189.992188 23.484375 191.769531 23.019531 193.699219 L 22.90625 173.375 C 22.902344 171.8125 22.984375 170.253906 23.160156 168.703125 C 23.335938 167.152344 23.597656 165.613281 23.949219 164.089844 C 24.300781 162.566406 24.738281 161.070312 25.261719 159.597656 C 25.785156 158.125 26.390625 156.6875 27.078125 155.285156 C 27.769531 153.882812 28.535156 152.523438 29.382812 151.210938 C 30.226562 149.894531 31.144531 148.632812 32.136719 147.421875 C 33.125 146.214844 34.183594 145.0625 35.304688 143.976562 C 36.429688 142.886719 37.609375 141.867188 38.851562 140.914062 L 62.574219 122.773438 C 57.355469 132.40625 57.609375 147.800781 57.898438 153.335938 C 56.894531 152.324219 55.839844 151.371094 54.734375 150.472656 L 55.039062 136.449219 C 55.042969 136.128906 54.90625 135.886719 54.628906 135.722656 C 54.351562 135.5625 54.074219 135.558594 53.796875 135.722656 C 49.085938 138.550781 44.566406 141.660156 40.246094 145.050781 C 39.675781 145.503906 39.277344 146.078125 39.046875 146.773438 L 38.5 148.441406 C 37.6875 150.433594 37.820312 152.953125 38.859375 155.316406 C 38.804688 155.429688 38.777344 155.550781 38.78125 155.679688 L 39.085938 167.734375 C 39.09375 168.046875 39.175781 168.335938 39.332031 168.601562 C 39.488281 168.871094 39.703125 169.082031 39.972656 169.238281 C 40.238281 169.394531 40.527344 169.476562 40.839844 169.484375 C 41.152344 169.492188 41.445312 169.421875 41.71875 169.273438 L 53.984375 162.789062 C 54.921875 164.542969 57.707031 169.28125 60.507812 169.363281 C 60.585938 169.367188 60.664062 169.367188 60.742188 169.363281 C 61.453125 169.316406 62.378906 168.953125 63.140625 167.640625 C 64.089844 166.015625 64.234375 164.074219 63.566406 161.878906 C 63.4375 161.464844 63.289062 161.058594 63.121094 160.660156 C 63.765625 160.109375 68.0625 156.535156 75.5625 153.117188 C 83.0625 149.703125 95.332031 145.742188 111.382812 146.296875 C 133.933594 147.078125 147.609375 150.554688 153.207031 156.945312 C 154.730469 158.679688 155.480469 166.910156 155.039062 176.96875 Z M 166.765625 152 C 165.628906 155.910156 160.140625 160.292969 155.921875 159.609375 C 155.566406 157.894531 155.082031 156.582031 154.457031 155.867188 C 154.296875 155.683594 154.128906 155.503906 153.960938 155.324219 C 154.722656 153.769531 158.882812 146.03125 164.867188 148.191406 C 166.664062 148.84375 167.304688 150.117188 166.765625 151.988281 Z M 166.765625 152"/><path fill="#002028" d="M 57.34375 183.03125 C 57.328125 183.003906 57.308594 182.980469 57.289062 182.953125 C 57.144531 182.789062 56.96875 182.695312 56.75 182.675781 C 55.871094 182.195312 54.933594 181.988281 53.933594 182.046875 C 49.972656 182.300781 47.167969 187.109375 47.550781 193 C 47.933594 198.890625 51.332031 203.289062 55.292969 203.039062 C 59.257812 202.792969 62.058594 197.976562 61.675781 192.085938 C 61.402344 188 59.691406 184.632812 57.34375 183.03125 Z M 49.210938 192.882812 C 48.90625 188.09375 51.117188 183.882812 54.050781 183.691406 C 54.445312 183.671875 54.832031 183.714844 55.210938 183.828125 C 53.546875 185.894531 52.675781 189.070312 52.894531 192.472656 C 53.152344 196.429688 54.417969 199.410156 56.507812 201.011719 C 56.097656 201.222656 55.660156 201.34375 55.199219 201.375 C 52.257812 201.566406 49.515625 197.675781 49.210938 192.882812 Z M 57.855469 199.945312 C 55.957031 198.726562 54.78125 196.0625 54.542969 192.367188 C 54.34375 189.269531 55.179688 186.335938 56.699219 184.628906 C 58.472656 186.046875 59.828125 188.890625 60.050781 192.183594 C 60.234375 195.363281 59.328125 198.277344 57.84375 199.945312 Z M 57.855469 199.945312"/><path fill="#002028" d="M 35.710938 150.171875 C 35.433594 150.058594 35.144531 150.035156 34.851562 150.09375 C 34.554688 150.15625 34.304688 150.292969 34.09375 150.507812 C 31.621094 153.015625 29.867188 155.347656 28.875 157.4375 C 24.273438 167.179688 25.136719 176.34375 25.171875 176.722656 C 25.203125 177.011719 25.34375 177.226562 25.601562 177.367188 C 25.742188 177.441406 25.890625 177.472656 26.046875 177.460938 C 26.164062 177.453125 26.277344 177.421875 26.378906 177.367188 L 34.546875 173.070312 C 35.253906 172.699219 35.8125 172.167969 36.222656 171.480469 C 36.632812 170.796875 36.832031 170.050781 36.824219 169.253906 L 36.648438 151.554688 C 36.648438 151.25 36.5625 150.972656 36.390625 150.71875 C 36.21875 150.46875 35.992188 150.285156 35.710938 150.171875 Z M 35.171875 169.257812 C 35.179688 169.746094 35.054688 170.203125 34.804688 170.625 C 34.550781 171.046875 34.207031 171.375 33.773438 171.601562 L 26.765625 175.3125 C 26.699219 172.511719 26.945312 165.417969 30.382812 158.144531 C 31.253906 156.292969 32.820312 154.210938 35.007812 151.945312 Z M 35.171875 169.257812"/><path fill="#002028" d="M 30.957031 190.050781 C 28.636719 190.199219 27.683594 194.273438 27.941406 198.222656 C 28.195312 202.167969 29.667969 206.082031 31.988281 205.929688 C 34.304688 205.777344 35.261719 201.707031 35.007812 197.761719 C 34.75 193.816406 33.277344 189.902344 30.957031 190.050781 Z M 31.871094 204.289062 C 31.207031 204.332031 29.832031 202.019531 29.578125 198.113281 C 29.328125 194.210938 30.390625 191.742188 31.054688 191.699219 C 31.71875 191.65625 33.09375 193.964844 33.347656 197.871094 C 33.605469 201.777344 32.546875 204.246094 31.878906 204.289062 Z M 31.871094 204.289062"/><path fill="#FFF" d="M 142.691406 156.140625 C 142.71875 156.582031 142.707031 157.007812 142.660156 157.421875 C 142.609375 157.832031 142.527344 158.199219 142.40625 158.519531 C 142.289062 158.839844 142.144531 159.089844 141.972656 159.269531 C 141.804688 159.449219 141.621094 159.546875 141.421875 159.558594 C 141.226562 159.570312 141.03125 159.5 140.839844 159.34375 C 140.648438 159.1875 140.472656 158.957031 140.3125 158.652344 C 140.15625 158.351562 140.023438 158 139.921875 157.597656 C 139.820312 157.195312 139.757812 156.773438 139.726562 156.332031 C 139.699219 155.894531 139.710938 155.46875 139.757812 155.054688 C 139.808594 154.644531 139.890625 154.277344 140.007812 153.957031 C 140.128906 153.636719 140.273438 153.386719 140.441406 153.207031 C 140.613281 153.027344 140.796875 152.929688 140.992188 152.917969 C 141.191406 152.902344 141.382812 152.976562 141.578125 153.132812 C 141.769531 153.289062 141.945312 153.519531 142.105469 153.820312 C 142.261719 154.125 142.394531 154.476562 142.496094 154.878906 C 142.597656 155.28125 142.660156 155.703125 142.691406 156.140625 Z M 142.691406 156.140625"/><path fill="#FFF" d="M 96.953125 156.496094 C 96.984375 156.9375 96.972656 157.363281 96.925781 157.773438 C 96.875 158.1875 96.792969 158.550781 96.671875 158.871094 C 96.554688 159.191406 96.410156 159.441406 96.238281 159.625 C 96.070312 159.804688 95.886719 159.898438 95.6875 159.914062 C 95.492188 159.925781 95.296875 159.855469 95.105469 159.695312 C 94.914062 159.539062 94.738281 159.308594 94.578125 159.007812 C 94.417969 158.707031 94.289062 158.351562 94.1875 157.949219 C 94.085938 157.546875 94.019531 157.128906 93.992188 156.6875 C 93.964844 156.246094 93.972656 155.820312 94.023438 155.410156 C 94.070312 154.996094 94.15625 154.628906 94.273438 154.308594 C 94.394531 153.988281 94.539062 153.738281 94.707031 153.558594 C 94.878906 153.378906 95.0625 153.28125 95.257812 153.269531 C 95.457031 153.257812 95.648438 153.328125 95.84375 153.484375 C 96.035156 153.644531 96.210938 153.871094 96.367188 154.175781 C 96.527344 154.476562 96.660156 154.828125 96.761719 155.230469 C 96.863281 155.632812 96.925781 156.054688 96.953125 156.496094 Z M 96.953125 156.496094"/><g fill="#002028"><g><g><path d="M 15.445312 -23.21875 C 14.148438 -20.628906 12.816406 -18.070312 11.410156 -15.550781 C 9.828125 -17.890625 8.316406 -20.269531 6.839844 -22.714844 C 5.074219 -25.667969 0.394531 -22.96875 2.195312 -19.980469 C 4.140625 -16.703125 6.226562 -13.5 8.425781 -10.402344 C 7.019531 -8.0625 5.578125 -5.761719 4.105469 -3.492188 C 2.195312 -0.574219 6.875 2.125 8.746094 -0.757812 C 9.828125 -2.410156 10.871094 -4.03125 11.878906 -5.6875 C 13.105469 -4.140625 14.328125 -2.554688 15.589844 -1.042969 C 17.785156 1.65625 21.601562 -2.195312 19.402344 -4.859375 C 17.820312 -6.769531 16.308594 -8.710938 14.867188 -10.691406 C 16.703125 -13.894531 18.46875 -17.171875 20.125 -20.484375 C 21.636719 -23.578125 16.992188 -26.316406 15.445312 -23.21875 Z M 15.445312 -23.21875" transform="translate(195.536 183.272)"/></g></g></g><g fill="#002028"><g><g><path d="M 15.011719 -7.632812 C 12.527344 -7.738281 10.042969 -7.632812 7.597656 -7.414062 C 7.777344 -8.785156 7.992188 -10.152344 8.171875 -11.519531 C 9.394531 -11.519531 10.621094 -11.484375 11.84375 -11.339844 C 13.320312 -11.195312 14.542969 -12.671875 14.542969 -14.039062 C 14.542969 -15.625 13.320312 -16.597656 11.84375 -16.738281 C 10.90625 -16.847656 9.972656 -16.882812 9 -16.921875 C 9.214844 -18.289062 9.46875 -19.691406 9.683594 -21.097656 C 11.519531 -21.097656 13.320312 -21.023438 15.15625 -20.914062 C 18.613281 -20.664062 18.613281 -26.0625 15.15625 -26.316406 C 12.5625 -26.496094 9.9375 -26.53125 7.34375 -26.425781 C 6.335938 -26.425781 5.617188 -25.921875 5.183594 -25.234375 C 5.003906 -24.949219 4.859375 -24.589844 4.789062 -24.191406 C 3.601562 -17.566406 2.628906 -10.945312 1.800781 -4.320312 C 1.546875 -2.375 3.707031 -1.476562 5.21875 -1.691406 C 8.460938 -2.230469 11.734375 -2.375 15.011719 -2.230469 C 18.46875 -2.089844 18.46875 -7.488281 15.011719 -7.632812 Z M 15.011719 -7.632812" transform="translate(215.984 183.272)"/></g></g></g><g fill="#002028"><g><g><path d="M 15.769531 -19.117188 C 14.328125 -15.300781 12.742188 -11.59375 11.089844 -7.882812 C 9.433594 -11.988281 8.425781 -16.488281 7.128906 -20.59375 C 6.085938 -23.867188 0.863281 -22.464844 1.90625 -19.152344 C 3.886719 -12.925781 5.292969 -5.941406 8.820312 -0.394531 C 9.828125 1.222656 12.527344 1.511719 13.464844 -0.394531 C 16.234375 -6.011719 18.757812 -11.773438 20.953125 -17.675781 C 22.175781 -20.914062 16.992188 -22.320312 15.769531 -19.117188 Z M 15.769531 -19.117188" transform="translate(242.876 183.272)"/></g></g></g><g fill="#002028"><g><g><path d="M 21.023438 -20.484375 C 20.59375 -23.867188 15.191406 -23.902344 15.625 -20.484375 C 16.128906 -16.523438 15.550781 -9.9375 11.339844 -7.921875 C 6.804688 -5.761719 7.128906 -18.683594 7.273438 -20.84375 C 7.523438 -24.300781 2.125 -24.265625 1.871094 -20.84375 C 1.441406 -14.761719 2.089844 -0.757812 11.554688 -2.375 C 19.222656 -3.671875 21.851562 -14.003906 21.023438 -20.484375 Z M 21.023438 -20.484375" transform="translate(264.045 183.272)"/></g></g></g><g fill="#002028"><g><g><path d="M 3.421875 -22.175781 C 2.699219 -15.695312 2.160156 -9.179688 1.800781 -2.664062 C 1.585938 0.828125 6.984375 0.792969 7.199219 -2.664062 C 7.558594 -9.179688 8.101562 -15.695312 8.820312 -22.175781 C 9.179688 -25.632812 3.78125 -25.632812 3.421875 -22.175781 Z M 3.421875 -22.175781" transform="translate(285.213 183.272)"/></g></g></g><g fill="#002028"><g><g><path d="M 15.769531 -19.117188 C 14.328125 -15.300781 12.742188 -11.59375 11.089844 -7.882812 C 9.433594 -11.988281 8.425781 -16.488281 7.128906 -20.59375 C 6.085938 -23.867188 0.863281 -22.464844 1.90625 -19.152344 C 3.886719 -12.925781 5.292969 -5.941406 8.820312 -0.394531 C 9.828125 1.222656 12.527344 1.511719 13.464844 -0.394531 C 16.234375 -6.011719 18.757812 -11.773438 20.953125 -17.675781 C 22.175781 -20.914062 16.992188 -22.320312 15.769531 -19.117188 Z M 15.769531 -19.117188" transform="translate(303.213 183.272)"/></g></g></g><g fill="#002028"><g><g><path d="M 15.011719 -7.632812 C 12.527344 -7.738281 10.042969 -7.632812 7.597656 -7.414062 C 7.777344 -8.785156 7.992188 -10.152344 8.171875 -11.519531 C 9.394531 -11.519531 10.621094 -11.484375 11.84375 -11.339844 C 13.320312 -11.195312 14.542969 -12.671875 14.542969 -14.039062 C 14.542969 -15.625 13.320312 -16.597656 11.84375 -16.738281 C 10.90625 -16.847656 9.972656 -16.882812 9 -16.921875 C 9.214844 -18.289062 9.46875 -19.691406 9.683594 -21.097656 C 11.519531 -21.097656 13.320312 -21.023438 15.15625 -20.914062 C 18.613281 -20.664062 18.613281 -26.0625 15.15625 -26.316406 C 12.5625 -26.496094 9.9375 -26.53125 7.34375 -26.425781 C 6.335938 -26.425781 5.617188 -25.921875 5.183594 -25.234375 C 5.003906 -24.949219 4.859375 -24.589844 4.789062 -24.191406 C 3.601562 -17.566406 2.628906 -10.945312 1.800781 -4.320312 C 1.546875 -2.375 3.707031 -1.476562 5.21875 -1.691406 C 8.460938 -2.230469 11.734375 -2.375 15.011719 -2.230469 C 18.46875 -2.089844 18.46875 -7.488281 15.011719 -7.632812 Z M 15.011719 -7.632812" transform="translate(324.38 183.272)"/></g></g></g><g fill="#002028"><g><g><path d="M 1.375 0 C 1.28125 0 1.195312 -0.03125 1.125 -0.09375 C 1.0625 -0.164062 1.03125 -0.25 1.03125 -0.34375 L 1.03125 -9.453125 C 1.03125 -9.554688 1.0625 -9.640625 1.125 -9.703125 C 1.195312 -9.765625 1.28125 -9.796875 1.375 -9.796875 L 5.546875 -9.796875 C 6.316406 -9.796875 6.953125 -9.679688 7.453125 -9.453125 C 7.953125 -9.234375 8.316406 -8.914062 8.546875 -8.5 C 8.785156 -8.09375 8.90625 -7.613281 8.90625 -7.0625 C 8.90625 -6.71875 8.84375 -6.414062 8.71875 -6.15625 C 8.59375 -5.894531 8.4375 -5.679688 8.25 -5.515625 C 8.070312 -5.347656 7.898438 -5.222656 7.734375 -5.140625 C 8.097656 -4.972656 8.414062 -4.691406 8.6875 -4.296875 C 8.96875 -3.910156 9.109375 -3.453125 9.109375 -2.921875 C 9.109375 -2.335938 8.972656 -1.828125 8.703125 -1.390625 C 8.441406 -0.953125 8.054688 -0.609375 7.546875 -0.359375 C 7.035156 -0.117188 6.410156 0 5.671875 0 Z M 3.265625 -1.65625 L 5.40625 -1.65625 C 5.863281 -1.65625 6.207031 -1.78125 6.4375 -2.03125 C 6.675781 -2.289062 6.796875 -2.59375 6.796875 -2.9375 C 6.796875 -3.300781 6.675781 -3.609375 6.4375 -3.859375 C 6.195312 -4.109375 5.851562 -4.234375 5.40625 -4.234375 L 3.265625 -4.234375 Z M 3.265625 -5.84375 L 5.28125 -5.84375 C 5.71875 -5.84375 6.046875 -5.953125 6.265625 -6.171875 C 6.484375 -6.390625 6.59375 -6.671875 6.59375 -7.015625 C 6.59375 -7.359375 6.484375 -7.628906 6.265625 -7.828125 C 6.046875 -8.035156 5.71875 -8.140625 5.28125 -8.140625 L 3.265625 -8.140625 Z M 3.265625 -5.84375" transform="translate(189.1 146.522)"/></g></g></g><g fill="#002028"><g><g><path d="M 4.671875 0.140625 C 4.003906 0.140625 3.425781 0.046875 2.9375 -0.140625 C 2.457031 -0.335938 2.0625 -0.601562 1.75 -0.9375 C 1.4375 -1.28125 1.203125 -1.675781 1.046875 -2.125 C 0.898438 -2.582031 0.8125 -3.066406 0.78125 -3.578125 C 0.769531 -3.835938 0.757812 -4.125 0.75 -4.4375 C 0.75 -4.75 0.75 -5.0625 0.75 -5.375 C 0.757812 -5.695312 0.769531 -5.988281 0.78125 -6.25 C 0.800781 -6.757812 0.890625 -7.238281 1.046875 -7.6875 C 1.210938 -8.132812 1.453125 -8.523438 1.765625 -8.859375 C 2.085938 -9.191406 2.488281 -9.453125 2.96875 -9.640625 C 3.457031 -9.835938 4.023438 -9.9375 4.671875 -9.9375 C 5.328125 -9.9375 5.890625 -9.835938 6.359375 -9.640625 C 6.835938 -9.453125 7.234375 -9.191406 7.546875 -8.859375 C 7.867188 -8.523438 8.113281 -8.132812 8.28125 -7.6875 C 8.445312 -7.238281 8.539062 -6.757812 8.5625 -6.25 C 8.570312 -5.988281 8.578125 -5.695312 8.578125 -5.375 C 8.585938 -5.0625 8.585938 -4.75 8.578125 -4.4375 C 8.578125 -4.125 8.570312 -3.835938 8.5625 -3.578125 C 8.539062 -3.066406 8.445312 -2.582031 8.28125 -2.125 C 8.125 -1.675781 7.890625 -1.28125 7.578125 -0.9375 C 7.265625 -0.601562 6.867188 -0.335938 6.390625 -0.140625 C 5.910156 0.046875 5.335938 0.140625 4.671875 0.140625 Z M 4.671875 -1.6875 C 5.210938 -1.6875 5.609375 -1.863281 5.859375 -2.21875 C 6.117188 -2.570312 6.253906 -3.050781 6.265625 -3.65625 C 6.273438 -3.925781 6.28125 -4.203125 6.28125 -4.484375 C 6.28125 -4.773438 6.28125 -5.066406 6.28125 -5.359375 C 6.28125 -5.648438 6.273438 -5.921875 6.265625 -6.171875 C 6.253906 -6.753906 6.117188 -7.226562 5.859375 -7.59375 C 5.609375 -7.957031 5.210938 -8.140625 4.671875 -8.140625 C 4.128906 -8.140625 3.734375 -7.957031 3.484375 -7.59375 C 3.234375 -7.226562 3.097656 -6.753906 3.078125 -6.171875 C 3.078125 -5.921875 3.070312 -5.648438 3.0625 -5.359375 C 3.0625 -5.066406 3.0625 -4.773438 3.0625 -4.484375 C 3.070312 -4.203125 3.078125 -3.925781 3.078125 -3.65625 C 3.097656 -3.050781 3.234375 -2.570312 3.484375 -2.21875 C 3.742188 -1.863281 4.140625 -1.6875 4.671875 -1.6875 Z M 4.671875 -1.6875" transform="translate(204.424 146.522)"/></g></g></g><g fill="#002028"><g><g><path d="M 4.671875 0.140625 C 4.003906 0.140625 3.425781 0.046875 2.9375 -0.140625 C 2.457031 -0.335938 2.0625 -0.601562 1.75 -0.9375 C 1.4375 -1.28125 1.203125 -1.675781 1.046875 -2.125 C 0.898438 -2.582031 0.8125 -3.066406 0.78125 -3.578125 C 0.769531 -3.835938 0.757812 -4.125 0.75 -4.4375 C 0.75 -4.75 0.75 -5.0625 0.75 -5.375 C 0.757812 -5.695312 0.769531 -5.988281 0.78125 -6.25 C 0.800781 -6.757812 0.890625 -7.238281 1.046875 -7.6875 C 1.210938 -8.132812 1.453125 -8.523438 1.765625 -8.859375 C 2.085938 -9.191406 2.488281 -9.453125 2.96875 -9.640625 C 3.457031 -9.835938 4.023438 -9.9375 4.671875 -9.9375 C 5.328125 -9.9375 5.890625 -9.835938 6.359375 -9.640625 C 6.835938 -9.453125 7.234375 -9.191406 7.546875 -8.859375 C 7.867188 -8.523438 8.113281 -8.132812 8.28125 -7.6875 C 8.445312 -7.238281 8.539062 -6.757812 8.5625 -6.25 C 8.570312 -5.988281 8.578125 -5.695312 8.578125 -5.375 C 8.585938 -5.0625 8.585938 -4.75 8.578125 -4.4375 C 8.578125 -4.125 8.570312 -3.835938 8.5625 -3.578125 C 8.539062 -3.066406 8.445312 -2.582031 8.28125 -2.125 C 8.125 -1.675781 7.890625 -1.28125 7.578125 -0.9375 C 7.265625 -0.601562 6.867188 -0.335938 6.390625 -0.140625 C 5.910156 0.046875 5.335938 0.140625 4.671875 0.140625 Z M 4.671875 -1.6875 C 5.210938 -1.6875 5.609375 -1.863281 5.859375 -2.21875 C 6.117188 -2.570312 6.253906 -3.050781 6.265625 -3.65625 C 6.273438 -3.925781 6.28125 -4.203125 6.28125 -4.484375 C 6.28125 -4.773438 6.28125 -5.066406 6.28125 -5.359375 C 6.28125 -5.648438 6.273438 -5.921875 6.265625 -6.171875 C 6.253906 -6.753906 6.117188 -7.226562 5.859375 -7.59375 C 5.609375 -7.957031 5.210938 -8.140625 4.671875 -8.140625 C 4.128906 -8.140625 3.734375 -7.957031 3.484375 -7.59375 C 3.234375 -7.226562 3.097656 -6.753906 3.078125 -6.171875 C 3.078125 -5.921875 3.070312 -5.648438 3.0625 -5.359375 C 3.0625 -5.066406 3.0625 -4.773438 3.0625 -4.484375 C 3.070312 -4.203125 3.078125 -3.925781 3.078125 -3.65625 C 3.097656 -3.050781 3.234375 -2.570312 3.484375 -2.21875 C 3.742188 -1.863281 4.140625 -1.6875 4.671875 -1.6875 Z M 4.671875 -1.6875" transform="translate(219.385 146.522)"/></g></g></g><g fill="#002028"><g><g><path d="M 1.375 0 C 1.28125 0 1.195312 -0.03125 1.125 -0.09375 C 1.0625 -0.164062 1.03125 -0.25 1.03125 -0.34375 L 1.03125 -9.453125 C 1.03125 -9.554688 1.0625 -9.640625 1.125 -9.703125 C 1.195312 -9.765625 1.28125 -9.796875 1.375 -9.796875 L 2.890625 -9.796875 C 2.984375 -9.796875 3.0625 -9.765625 3.125 -9.703125 C 3.195312 -9.640625 3.234375 -9.554688 3.234375 -9.453125 L 3.234375 -6.265625 L 6.109375 -9.53125 C 6.140625 -9.59375 6.195312 -9.648438 6.28125 -9.703125 C 6.375 -9.765625 6.5 -9.796875 6.65625 -9.796875 L 8.359375 -9.796875 C 8.429688 -9.796875 8.5 -9.765625 8.5625 -9.703125 C 8.625 -9.648438 8.65625 -9.582031 8.65625 -9.5 C 8.65625 -9.4375 8.632812 -9.382812 8.59375 -9.34375 L 5 -5.109375 L 8.859375 -0.46875 C 8.898438 -0.425781 8.921875 -0.367188 8.921875 -0.296875 C 8.921875 -0.222656 8.890625 -0.15625 8.828125 -0.09375 C 8.765625 -0.03125 8.695312 0 8.625 0 L 6.859375 0 C 6.691406 0 6.566406 -0.0351562 6.484375 -0.109375 C 6.398438 -0.179688 6.34375 -0.234375 6.3125 -0.265625 L 3.234375 -3.84375 L 3.234375 -0.34375 C 3.234375 -0.25 3.195312 -0.164062 3.125 -0.09375 C 3.0625 -0.03125 2.984375 0 2.890625 0 Z M 1.375 0" transform="translate(234.346 146.522)"/></g></g></g><g fill="#002028"><g><g><path d="M 1.375 0 C 1.28125 0 1.195312 -0.03125 1.125 -0.09375 C 1.0625 -0.164062 1.03125 -0.25 1.03125 -0.34375 L 1.03125 -9.453125 C 1.03125 -9.554688 1.0625 -9.640625 1.125 -9.703125 C 1.195312 -9.765625 1.28125 -9.796875 1.375 -9.796875 L 2.984375 -9.796875 C 3.078125 -9.796875 3.15625 -9.765625 3.21875 -9.703125 C 3.28125 -9.640625 3.3125 -9.554688 3.3125 -9.453125 L 3.3125 -0.34375 C 3.3125 -0.25 3.28125 -0.164062 3.21875 -0.09375 C 3.15625 -0.03125 3.078125 0 2.984375 0 Z M 1.375 0" transform="translate(248.999 146.522)"/></g></g></g><g fill="#002028"><g><g><path d="M 1.375 0 C 1.28125 0 1.195312 -0.03125 1.125 -0.09375 C 1.0625 -0.164062 1.03125 -0.25 1.03125 -0.34375 L 1.03125 -9.453125 C 1.03125 -9.554688 1.0625 -9.640625 1.125 -9.703125 C 1.195312 -9.765625 1.28125 -9.796875 1.375 -9.796875 L 2.65625 -9.796875 C 2.800781 -9.796875 2.90625 -9.765625 2.96875 -9.703125 C 3.03125 -9.640625 3.070312 -9.585938 3.09375 -9.546875 L 6.8125 -3.71875 L 6.8125 -9.453125 C 6.8125 -9.554688 6.84375 -9.640625 6.90625 -9.703125 C 6.976562 -9.765625 7.066406 -9.796875 7.171875 -9.796875 L 8.59375 -9.796875 C 8.695312 -9.796875 8.78125 -9.765625 8.84375 -9.703125 C 8.914062 -9.640625 8.953125 -9.554688 8.953125 -9.453125 L 8.953125 -0.34375 C 8.953125 -0.25 8.914062 -0.164062 8.84375 -0.09375 C 8.78125 -0.03125 8.695312 0 8.59375 0 L 7.3125 0 C 7.164062 0 7.0625 -0.03125 7 -0.09375 C 6.9375 -0.164062 6.894531 -0.21875 6.875 -0.25 L 3.15625 -5.890625 L 3.15625 -0.34375 C 3.15625 -0.25 3.125 -0.164062 3.0625 -0.09375 C 3 -0.03125 2.914062 0 2.8125 0 Z M 1.375 0" transform="translate(258.95 146.522)"/></g></g></g><g fill="#002028"><g><g><path d="M 4.96875 0.140625 C 4.09375 0.140625 3.34375 -0.00390625 2.71875 -0.296875 C 2.101562 -0.585938 1.625 -1.015625 1.28125 -1.578125 C 0.9375 -2.148438 0.753906 -2.835938 0.734375 -3.640625 C 0.722656 -4.035156 0.71875 -4.460938 0.71875 -4.921875 C 0.71875 -5.378906 0.722656 -5.816406 0.734375 -6.234375 C 0.753906 -7.015625 0.9375 -7.679688 1.28125 -8.234375 C 1.625 -8.785156 2.109375 -9.207031 2.734375 -9.5 C 3.367188 -9.789062 4.113281 -9.9375 4.96875 -9.9375 C 5.65625 -9.9375 6.257812 -9.847656 6.78125 -9.671875 C 7.3125 -9.492188 7.753906 -9.257812 8.109375 -8.96875 C 8.472656 -8.6875 8.742188 -8.378906 8.921875 -8.046875 C 9.109375 -7.710938 9.207031 -7.382812 9.21875 -7.0625 C 9.21875 -6.976562 9.1875 -6.910156 9.125 -6.859375 C 9.070312 -6.804688 9 -6.78125 8.90625 -6.78125 L 7.171875 -6.78125 C 7.078125 -6.78125 7.003906 -6.796875 6.953125 -6.828125 C 6.898438 -6.867188 6.851562 -6.925781 6.8125 -7 C 6.75 -7.15625 6.644531 -7.320312 6.5 -7.5 C 6.351562 -7.675781 6.160156 -7.820312 5.921875 -7.9375 C 5.679688 -8.0625 5.363281 -8.125 4.96875 -8.125 C 4.382812 -8.125 3.921875 -7.96875 3.578125 -7.65625 C 3.234375 -7.351562 3.050781 -6.851562 3.03125 -6.15625 C 3 -5.351562 3 -4.535156 3.03125 -3.703125 C 3.050781 -2.984375 3.238281 -2.46875 3.59375 -2.15625 C 3.945312 -1.84375 4.414062 -1.6875 5 -1.6875 C 5.382812 -1.6875 5.726562 -1.753906 6.03125 -1.890625 C 6.332031 -2.023438 6.570312 -2.234375 6.75 -2.515625 C 6.925781 -2.796875 7.015625 -3.160156 7.015625 -3.609375 L 7.015625 -3.96875 L 5.484375 -3.96875 C 5.390625 -3.96875 5.3125 -4 5.25 -4.0625 C 5.1875 -4.132812 5.15625 -4.21875 5.15625 -4.3125 L 5.15625 -5.203125 C 5.15625 -5.304688 5.1875 -5.390625 5.25 -5.453125 C 5.3125 -5.523438 5.390625 -5.5625 5.484375 -5.5625 L 8.9375 -5.5625 C 9.039062 -5.5625 9.125 -5.523438 9.1875 -5.453125 C 9.25 -5.390625 9.28125 -5.304688 9.28125 -5.203125 L 9.28125 -3.6875 C 9.28125 -2.882812 9.101562 -2.195312 8.75 -1.625 C 8.394531 -1.050781 7.890625 -0.613281 7.234375 -0.3125 C 6.585938 -0.0078125 5.832031 0.140625 4.96875 0.140625 Z M 4.96875 0.140625" transform="translate(274.527 146.522)"/></g></g></g><g fill="#002028"><g><g><path d="M 2.625 0 C 2.476562 0 2.359375 -0.0390625 2.265625 -0.125 C 2.179688 -0.207031 2.125 -0.3125 2.09375 -0.4375 L 0.515625 -9.40625 C 0.503906 -9.425781 0.5 -9.441406 0.5 -9.453125 C 0.5 -9.472656 0.5 -9.488281 0.5 -9.5 C 0.5 -9.582031 0.523438 -9.648438 0.578125 -9.703125 C 0.640625 -9.765625 0.710938 -9.796875 0.796875 -9.796875 L 2.28125 -9.796875 C 2.519531 -9.796875 2.65625 -9.695312 2.6875 -9.5 L 3.71875 -3.59375 L 4.859375 -7.265625 C 4.890625 -7.335938 4.9375 -7.414062 5 -7.5 C 5.0625 -7.582031 5.164062 -7.625 5.3125 -7.625 L 6.203125 -7.625 C 6.347656 -7.625 6.453125 -7.582031 6.515625 -7.5 C 6.585938 -7.414062 6.632812 -7.335938 6.65625 -7.265625 L 7.796875 -3.609375 L 8.828125 -9.5 C 8.859375 -9.695312 8.992188 -9.796875 9.234375 -9.796875 L 10.71875 -9.796875 C 10.800781 -9.796875 10.867188 -9.765625 10.921875 -9.703125 C 10.984375 -9.648438 11.015625 -9.582031 11.015625 -9.5 C 11.015625 -9.488281 11.015625 -9.472656 11.015625 -9.453125 C 11.015625 -9.441406 11.007812 -9.425781 11 -9.40625 L 9.421875 -0.4375 C 9.398438 -0.3125 9.34375 -0.207031 9.25 -0.125 C 9.164062 -0.0390625 9.046875 0 8.890625 0 L 7.75 0 C 7.601562 0 7.488281 -0.0351562 7.40625 -0.109375 C 7.332031 -0.191406 7.28125 -0.273438 7.25 -0.359375 L 5.765625 -4.703125 L 4.265625 -0.359375 C 4.242188 -0.273438 4.191406 -0.191406 4.109375 -0.109375 C 4.023438 -0.0351562 3.910156 0 3.765625 0 Z M 2.625 0" transform="translate(298.754 146.522)"/></g></g></g><g fill="#002028"><g><g><path d="M 1.375 0 C 1.28125 0 1.195312 -0.03125 1.125 -0.09375 C 1.0625 -0.164062 1.03125 -0.25 1.03125 -0.34375 L 1.03125 -9.453125 C 1.03125 -9.554688 1.0625 -9.640625 1.125 -9.703125 C 1.195312 -9.765625 1.28125 -9.796875 1.375 -9.796875 L 2.984375 -9.796875 C 3.078125 -9.796875 3.15625 -9.765625 3.21875 -9.703125 C 3.28125 -9.640625 3.3125 -9.554688 3.3125 -9.453125 L 3.3125 -0.34375 C 3.3125 -0.25 3.28125 -0.164062 3.21875 -0.09375 C 3.15625 -0.03125 3.078125 0 2.984375 0 Z M 1.375 0" transform="translate(315.87 146.522)"/></g></g></g><g fill="#002028"><g><g><path d="M 3.546875 0 C 3.441406 0 3.351562 -0.03125 3.28125 -0.09375 C 3.21875 -0.164062 3.1875 -0.25 3.1875 -0.34375 L 3.1875 -7.84375 L 0.640625 -7.84375 C 0.546875 -7.84375 0.46875 -7.875 0.40625 -7.9375 C 0.34375 -8 0.3125 -8.082031 0.3125 -8.1875 L 0.3125 -9.453125 C 0.3125 -9.554688 0.34375 -9.640625 0.40625 -9.703125 C 0.46875 -9.765625 0.546875 -9.796875 0.640625 -9.796875 L 7.984375 -9.796875 C 8.085938 -9.796875 8.171875 -9.765625 8.234375 -9.703125 C 8.296875 -9.640625 8.328125 -9.554688 8.328125 -9.453125 L 8.328125 -8.1875 C 8.328125 -8.082031 8.296875 -8 8.234375 -7.9375 C 8.171875 -7.875 8.085938 -7.84375 7.984375 -7.84375 L 5.453125 -7.84375 L 5.453125 -0.34375 C 5.453125 -0.25 5.414062 -0.164062 5.34375 -0.09375 C 5.28125 -0.03125 5.195312 0 5.09375 0 Z M 3.546875 0" transform="translate(325.82 146.522)"/></g></g></g><g fill="#002028"><g><g><path d="M 1.375 0 C 1.28125 0 1.195312 -0.03125 1.125 -0.09375 C 1.0625 -0.164062 1.03125 -0.25 1.03125 -0.34375 L 1.03125 -9.453125 C 1.03125 -9.554688 1.0625 -9.640625 1.125 -9.703125 C 1.195312 -9.765625 1.28125 -9.796875 1.375 -9.796875 L 2.90625 -9.796875 C 3.007812 -9.796875 3.09375 -9.765625 3.15625 -9.703125 C 3.226562 -9.640625 3.265625 -9.554688 3.265625 -9.453125 L 3.265625 -5.953125 L 7.0625 -5.953125 L 7.0625 -9.453125 C 7.0625 -9.554688 7.09375 -9.640625 7.15625 -9.703125 C 7.21875 -9.765625 7.296875 -9.796875 7.390625 -9.796875 L 8.9375 -9.796875 C 9.039062 -9.796875 9.125 -9.765625 9.1875 -9.703125 C 9.25 -9.640625 9.28125 -9.554688 9.28125 -9.453125 L 9.28125 -0.34375 C 9.28125 -0.25 9.25 -0.164062 9.1875 -0.09375 C 9.125 -0.03125 9.039062 0 8.9375 0 L 7.390625 0 C 7.296875 0 7.21875 -0.03125 7.15625 -0.09375 C 7.09375 -0.164062 7.0625 -0.25 7.0625 -0.34375 L 7.0625 -3.96875 L 3.265625 -3.96875 L 3.265625 -0.34375 C 3.265625 -0.25 3.226562 -0.164062 3.15625 -0.09375 C 3.09375 -0.03125 3.007812 0 2.90625 0 Z M 1.375 0" transform="translate(340.054 146.522)"/></g></g></g></svg>